<?xml version="1.0" standalone="no"?><!DOCTYPE svg PUBLIC "-//W3C//DTD SVG 1.1//EN" "http://www.w3.org/Graphics/SVG/1.1/DTD/svg11.dtd"><svg t="1558064015400" class="icon" style="" viewBox="0 0 1024 1024" version="1.1" xmlns="http://www.w3.org/2000/svg" p-id="2881" xmlns:xlink="http://www.w3.org/1999/xlink" width="32" height="32"><defs><style type="text/css"></style></defs><path d="M644.6 576.8m-63.6 0a63.6 63.6 0 1 0 127.2 0 63.6 63.6 0 1 0-127.2 0Z" p-id="2882"></path><path d="M380.6 576.8m-63.6 0a63.6 63.6 0 1 0 127.2 0 63.6 63.6 0 1 0-127.2 0Z" p-id="2883"></path><path d="M961 502c0-55.4-44.4-100.4-99-100.4-26 0-49.4 10-67.2 26.6-66.4-46.8-156.8-77-257.4-81.4L584 191.4l139.2 27.8c0.4 49.4 40.2 89.4 89 89.4 49.2 0 89-40.4 89-90.2S861.4 128 812.2 128c-37.2 0-69 23.2-82.4 56l-170.4-34-58.8 196.4-14.2 0.4c-100.6 4.4-191 34.8-257.4 81.4-17.6-16.6-41.2-26.6-67.2-26.6-54.6 0-99 45-99 100.4 0 39.2 22 73 54.2 89.6-1.6 9.8-2.4 19.6-2.4 29.6C115 772.8 292.8 896 512 896s397-123.2 397-275c0-10-0.8-19.8-2.2-29.6 32.2-16.6 54.2-50.4 54.2-89.4zM812.2 163.8c29.6 0 53.6 24.4 53.6 54.4s-24 54.4-53.6 54.4-53.6-24.4-53.6-54.4 24-54.4 53.6-54.4zM98.4 502c0-35.6 28.6-64.4 63.6-64.4 14.4 0 27.8 5 38.4 13.2-34.6 30.4-60.2 66-74 104.8-16.8-11.8-28-31.4-28-53.6z m674.4 283.8C703.6 833.6 611 860 512 860s-191.6-26.4-260.8-74.2c-65-45-100.8-103.6-100.8-164.8 0-6.4 0.4-13 1.2-19.4 1.4-12 4.4-23.8 8.6-35.4 11.2-31.2 32-60.6 61.4-86.8 8.8-7.8 18.4-15.4 28.8-22.6 0.2-0.2 0.6-0.4 0.8-0.6C320.4 408.4 413 382 512 382s191.6 26.4 260.8 74.2c0.2 0.2 0.6 0.4 0.8 0.6 10.4 7.2 20 14.8 28.8 22.6 29.4 26.2 50.2 55.6 61.4 86.8 4.2 11.6 7 23.4 8.6 35.4 0.8 6.4 1.2 12.8 1.2 19.4 0 61.2-35.8 119.8-100.8 164.8z m124.8-230.4c-13.8-38.8-39.4-74.4-74-104.8 10.6-8.2 24-13.2 38.4-13.2 35 0 63.6 29 63.6 64.4 0 22.4-11.2 42-28 53.6z" p-id="2884"></path><path d="M641 715.8c-0.4 0.4-48.4 48.4-129 48.8-81.8-0.4-128.8-48.4-129.2-48.8l-25.2 24.8c2.4 2.4 59.2 59 154.4 59.4 95.2-0.4 151.8-57 154.2-59.4l-25.2-24.8z" p-id="2885"></path></svg>